<svg width="146" height="24" viewBox="0 0 146 24" fill="none" xmlns="http://www.w3.org/2000/svg">
<path d="M145.707 12.7071C146.098 12.3166 146.098 11.6834 145.707 11.2929L139.343 4.92893C138.953 4.53841 138.319 4.53841 137.929 4.92893C137.538 5.31946 137.538 5.95262 137.929 6.34315L143.586 12L137.929 17.6569C137.538 18.0474 137.538 18.6805 137.929 19.0711C138.319 19.4616 138.953 19.4616 139.343 19.0711L145.707 12.7071ZM110 13H145V11H110V13Z" fill="white"/>
<path d="M0.292892 11.2929C-0.0976295 11.6834 -0.0976295 12.3166 0.292892 12.7071L6.65685 19.0711C7.04738 19.4616 7.68054 19.4616 8.07107 19.0711C8.46159 18.6805 8.46159 18.0474 8.07107 17.6569L2.41422 12L8.07107 6.34315C8.46159 5.95262 8.46159 5.31946 8.07107 4.92893C7.68054 4.53841 7.04738 4.53841 6.65685 4.92893L0.292892 11.2929ZM36 11L1 11V13L36 13V11Z" fill="white"/>
<path d="M51.5376 9.61719C51.4912 9.183 51.2957 8.84493 50.951 8.60298C50.6096 8.36103 50.1655 8.24006 49.6186 8.24006C49.2341 8.24006 48.9044 8.29806 48.6293 8.41406C48.3542 8.53007 48.1437 8.6875 47.9979 8.88636C47.852 9.08523 47.7775 9.31226 47.7741 9.56747C47.7741 9.77959 47.8222 9.96354 47.9183 10.1193C48.0178 10.2751 48.152 10.4077 48.321 10.517C48.4901 10.6231 48.6773 10.7126 48.8828 10.7855C49.0883 10.8584 49.2955 10.9197 49.5043 10.9695L50.4588 11.2081C50.8433 11.2976 51.2128 11.4186 51.5675 11.571C51.9254 11.7235 52.2453 11.9157 52.527 12.1477C52.812 12.3797 53.0374 12.6598 53.2031 12.9879C53.3688 13.3161 53.4517 13.7005 53.4517 14.1413C53.4517 14.7379 53.2992 15.2633 52.9943 15.7173C52.6894 16.1681 52.2486 16.5211 51.6719 16.7763C51.0985 17.0282 50.4041 17.1541 49.5888 17.1541C48.7966 17.1541 48.1089 17.0315 47.5256 16.7862C46.9455 16.541 46.4915 16.183 46.1634 15.7124C45.8385 15.2417 45.6629 14.6683 45.6364 13.9922H47.451C47.4775 14.3468 47.5869 14.6418 47.7791 14.8771C47.9714 15.1125 48.2216 15.2881 48.5298 15.4041C48.8414 15.5201 49.1894 15.5781 49.5739 15.5781C49.9749 15.5781 50.3262 15.5185 50.6278 15.3991C50.9328 15.2765 51.1714 15.1075 51.3438 14.892C51.5161 14.6733 51.6039 14.4181 51.6072 14.1264C51.6039 13.8613 51.526 13.6425 51.3736 13.4702C51.2211 13.2945 51.0073 13.1487 50.7322 13.0327C50.4605 12.9134 50.1423 12.8073 49.7777 12.7145L48.6193 12.4162C47.7808 12.2008 47.1179 11.8743 46.6307 11.4368C46.1468 10.996 45.9048 10.411 45.9048 9.68182C45.9048 9.08191 46.0672 8.55658 46.392 8.10582C46.7202 7.65507 47.166 7.3054 47.7294 7.05682C48.2929 6.80492 48.9309 6.67898 49.6435 6.67898C50.366 6.67898 50.9991 6.80492 51.5426 7.05682C52.0895 7.3054 52.5187 7.65175 52.8303 8.09588C53.1418 8.53669 53.3026 9.0438 53.3125 9.61719H51.5376ZM63.8113 10.2536H61.9519C61.8989 9.94863 61.8011 9.6785 61.6586 9.44318C61.516 9.20455 61.3387 9.00237 61.1266 8.83665C60.9145 8.67093 60.6725 8.54664 60.4007 8.46378C60.1323 8.3776 59.8423 8.33452 59.5307 8.33452C58.9772 8.33452 58.4867 8.47372 58.0591 8.75213C57.6316 9.02722 57.2968 9.43158 57.0549 9.9652C56.8129 10.4955 56.6919 11.1435 56.6919 11.9091C56.6919 12.688 56.8129 13.3442 57.0549 13.8778C57.3001 14.4081 57.6349 14.8092 58.0591 15.081C58.4867 15.3494 58.9756 15.4837 59.5257 15.4837C59.8307 15.4837 60.1157 15.4439 60.3809 15.3643C60.6493 15.2815 60.8896 15.1605 61.1017 15.0014C61.3172 14.8423 61.4978 14.6468 61.6436 14.4148C61.7928 14.1828 61.8955 13.9176 61.9519 13.6193L63.8113 13.6293C63.7417 14.1132 63.5909 14.5672 63.3588 14.9915C63.1301 15.4157 62.8302 15.7902 62.459 16.1151C62.0878 16.4366 61.6536 16.6884 61.1564 16.8707C60.6593 17.0497 60.1074 17.1392 59.5009 17.1392C58.606 17.1392 57.8072 16.9321 57.1046 16.5178C56.4019 16.1035 55.8484 15.5052 55.4441 14.723C55.0397 13.9408 54.8375 13.0028 54.8375 11.9091C54.8375 10.812 55.0414 9.87405 55.449 9.09517C55.8567 8.31297 56.4119 7.71473 57.1145 7.30043C57.8172 6.88613 58.6126 6.67898 59.5009 6.67898C60.0676 6.67898 60.5946 6.75852 61.0819 6.91761C61.5691 7.0767 62.0033 7.31037 62.3844 7.61861C62.7656 7.92353 63.0788 8.29806 63.324 8.74219C63.5726 9.183 63.735 9.68679 63.8113 10.2536ZM65.5004 17V6.81818H69.3185C70.1007 6.81818 70.757 6.95407 71.2873 7.22585C71.8209 7.49763 72.2236 7.87879 72.4954 8.36932C72.7705 8.85653 72.908 9.42495 72.908 10.0746C72.908 10.7275 72.7688 11.2943 72.4904 11.7749C72.2153 12.2521 71.8093 12.6217 71.2724 12.8835C70.7354 13.142 70.0759 13.2713 69.2937 13.2713H66.5742V11.7401H69.0451C69.5025 11.7401 69.877 11.6771 70.1687 11.5511C70.4603 11.4219 70.6758 11.2346 70.815 10.9893C70.9575 10.7408 71.0288 10.4358 71.0288 10.0746C71.0288 9.7133 70.9575 9.40507 70.815 9.14986C70.6725 8.89134 70.4554 8.69579 70.1637 8.56321C69.872 8.42732 69.4959 8.35938 69.0352 8.35938H67.3448V17H65.5004ZM70.7603 12.3864L73.2809 17H71.2227L68.7468 12.3864H70.7603ZM83.7038 11.9091C83.7038 13.0062 83.4983 13.9458 83.0874 14.728C82.6797 15.5069 82.1229 16.1035 81.4169 16.5178C80.7143 16.9321 79.9171 17.1392 79.0256 17.1392C78.134 17.1392 77.3352 16.9321 76.6293 16.5178C75.9266 16.1001 75.3698 15.5019 74.9588 14.723C74.5511 13.9408 74.3473 13.0028 74.3473 11.9091C74.3473 10.812 74.5511 9.87405 74.9588 9.09517C75.3698 8.31297 75.9266 7.71473 76.6293 7.30043C77.3352 6.88613 78.134 6.67898 79.0256 6.67898C79.9171 6.67898 80.7143 6.88613 81.4169 7.30043C82.1229 7.71473 82.6797 8.31297 83.0874 9.09517C83.4983 9.87405 83.7038 10.812 83.7038 11.9091ZM81.8494 11.9091C81.8494 11.1368 81.7285 10.4856 81.4865 9.95526C81.2479 9.42164 80.9164 9.01894 80.4922 8.74716C80.0679 8.47206 79.5791 8.33452 79.0256 8.33452C78.4721 8.33452 77.9832 8.47206 77.5589 8.74716C77.1347 9.01894 76.8016 9.42164 76.5597 9.95526C76.321 10.4856 76.2017 11.1368 76.2017 11.9091C76.2017 12.6813 76.321 13.3343 76.5597 13.8679C76.8016 14.3982 77.1347 14.8009 77.5589 15.076C77.9832 15.3478 78.4721 15.4837 79.0256 15.4837C79.5791 15.4837 80.0679 15.3478 80.4922 15.076C80.9164 14.8009 81.2479 14.3982 81.4865 13.8679C81.7285 13.3343 81.8494 12.6813 81.8494 11.9091ZM85.4476 17V6.81818H87.2921V15.4538H91.7765V17H85.4476ZM93.3773 17V6.81818H95.2218V15.4538H99.7061V17H93.3773Z" fill="white"/>
</svg>
