<svg width="257" height="111" viewBox="0 0 257 111" fill="none" xmlns="http://www.w3.org/2000/svg">
<path d="M11.3239 9.71023C11.2784 9.25189 11.0833 8.89583 10.7386 8.64205C10.3939 8.38826 9.92614 8.26136 9.33523 8.26136C8.93371 8.26136 8.5947 8.31818 8.31818 8.43182C8.04167 8.54167 7.82955 8.69508 7.68182 8.89205C7.53788 9.08902 7.46591 9.3125 7.46591 9.5625C7.45833 9.77083 7.50189 9.95265 7.59659 10.108C7.69508 10.2633 7.82955 10.3977 8 10.5114C8.17045 10.6212 8.36742 10.7178 8.59091 10.8011C8.81439 10.8807 9.05303 10.9489 9.30682 11.0057L10.3523 11.2557C10.8598 11.3693 11.3258 11.5208 11.75 11.7102C12.1742 11.8996 12.5417 12.1326 12.8523 12.4091C13.1629 12.6856 13.4034 13.0114 13.5739 13.3864C13.7481 13.7614 13.8371 14.1913 13.8409 14.6761C13.8371 15.3883 13.6553 16.0057 13.2955 16.5284C12.9394 17.0473 12.4242 17.4508 11.75 17.7386C11.0795 18.0227 10.2708 18.1648 9.32386 18.1648C8.38447 18.1648 7.56629 18.0208 6.86932 17.733C6.17614 17.4451 5.63447 17.0189 5.24432 16.4545C4.85795 15.8864 4.6553 15.1837 4.63636 14.3466H7.01705C7.04356 14.7367 7.1553 15.0625 7.35227 15.3239C7.55303 15.5814 7.82008 15.7765 8.15341 15.9091C8.49053 16.0379 8.87121 16.1023 9.29545 16.1023C9.71212 16.1023 10.0739 16.0417 10.3807 15.9205C10.6913 15.7992 10.9318 15.6307 11.1023 15.4148C11.2727 15.1989 11.358 14.9508 11.358 14.6705C11.358 14.4091 11.2803 14.1894 11.125 14.0114C10.9735 13.8333 10.75 13.6818 10.4545 13.5568C10.1629 13.4318 9.80492 13.3182 9.38068 13.2159L8.11364 12.8977C7.13258 12.6591 6.35795 12.286 5.78977 11.7784C5.22159 11.2708 4.93939 10.5871 4.94318 9.72727C4.93939 9.02273 5.12689 8.4072 5.50568 7.88068C5.88826 7.35417 6.41288 6.94318 7.07955 6.64773C7.74621 6.35227 8.50379 6.20455 9.35227 6.20455C10.2159 6.20455 10.9697 6.35227 11.6136 6.64773C12.2614 6.94318 12.7652 7.35417 13.125 7.88068C13.4848 8.4072 13.6705 9.01705 13.6818 9.71023H11.3239ZM15.4957 18V6.36364H23.3366V8.39205H17.956V11.1648H22.9332V13.1932H17.956V15.9716H23.3594V18H15.4957ZM35.0256 6.36364V18H32.9006L27.8381 10.6761H27.7528V18H25.2926V6.36364H27.4517L32.4744 13.6818H32.5767V6.36364H35.0256ZM41.1832 18H37.0582V6.36364H41.2173C42.3878 6.36364 43.3954 6.59659 44.2401 7.0625C45.0848 7.52462 45.7344 8.18939 46.1889 9.05682C46.6473 9.92424 46.8764 10.9621 46.8764 12.1705C46.8764 13.3826 46.6473 14.4242 46.1889 15.2955C45.7344 16.1667 45.081 16.8352 44.2287 17.3011C43.3802 17.767 42.3651 18 41.1832 18ZM39.5185 15.892H41.081C41.8082 15.892 42.42 15.7633 42.9162 15.5057C43.4162 15.2443 43.7912 14.8409 44.0412 14.2955C44.295 13.7462 44.4219 13.0379 44.4219 12.1705C44.4219 11.3106 44.295 10.608 44.0412 10.0625C43.7912 9.51705 43.4181 9.11553 42.9219 8.85795C42.4257 8.60038 41.8139 8.47159 41.0866 8.47159H39.5185V15.892ZM51.7202 6.36364H54.4759L57.1293 11.375H57.2429L59.8963 6.36364H62.652L58.4077 13.8864V18H55.9645V13.8864L51.7202 6.36364ZM73.9858 12.1818C73.9858 13.4508 73.7453 14.5303 73.2642 15.4205C72.7869 16.3106 72.1354 16.9905 71.3097 17.4602C70.4877 17.9261 69.5634 18.1591 68.5369 18.1591C67.5028 18.1591 66.5748 17.9242 65.7528 17.4545C64.9309 16.9848 64.2813 16.3049 63.804 15.4148C63.3267 14.5246 63.0881 13.447 63.0881 12.1818C63.0881 10.9129 63.3267 9.83333 63.804 8.94318C64.2813 8.05303 64.9309 7.375 65.7528 6.90909C66.5748 6.43939 67.5028 6.20455 68.5369 6.20455C69.5634 6.20455 70.4877 6.43939 71.3097 6.90909C72.1354 7.375 72.7869 8.05303 73.2642 8.94318C73.7453 9.83333 73.9858 10.9129 73.9858 12.1818ZM71.4915 12.1818C71.4915 11.3598 71.3684 10.6667 71.1222 10.1023C70.8797 9.53788 70.5369 9.10985 70.0938 8.81818C69.6506 8.52652 69.1316 8.38068 68.5369 8.38068C67.9422 8.38068 67.4233 8.52652 66.9801 8.81818C66.5369 9.10985 66.1922 9.53788 65.946 10.1023C65.7036 10.6667 65.5824 11.3598 65.5824 12.1818C65.5824 13.0038 65.7036 13.697 65.946 14.2614C66.1922 14.8258 66.5369 15.2538 66.9801 15.5455C67.4233 15.8371 67.9422 15.983 68.5369 15.983C69.1316 15.983 69.6506 15.8371 70.0938 15.5455C70.5369 15.2538 70.8797 14.8258 71.1222 14.2614C71.3684 13.697 71.4915 13.0038 71.4915 12.1818ZM82.9957 6.36364H85.456V13.9205C85.456 14.7689 85.2533 15.5114 84.848 16.1477C84.4465 16.7841 83.884 17.2803 83.1605 17.6364C82.437 17.9886 81.5942 18.1648 80.6321 18.1648C79.6662 18.1648 78.8215 17.9886 78.098 17.6364C77.3745 17.2803 76.812 16.7841 76.4105 16.1477C76.009 15.5114 75.8082 14.7689 75.8082 13.9205V6.36364H78.2685V13.7102C78.2685 14.1534 78.3651 14.5473 78.5582 14.892C78.7552 15.2367 79.0317 15.5076 79.3878 15.7045C79.7438 15.9015 80.1586 16 80.6321 16C81.1094 16 81.5241 15.9015 81.8764 15.7045C82.2325 15.5076 82.5071 15.2367 82.7003 14.892C82.8973 14.5473 82.9957 14.1534 82.9957 13.7102V6.36364ZM87.4801 18V6.36364H92.071C92.9498 6.36364 93.6998 6.52083 94.321 6.83523C94.946 7.14583 95.4214 7.58712 95.7472 8.15909C96.0767 8.72727 96.2415 9.39583 96.2415 10.1648C96.2415 10.9375 96.0748 11.6023 95.7415 12.1591C95.4081 12.7121 94.9252 13.1364 94.2926 13.4318C93.6638 13.7273 92.9025 13.875 92.0085 13.875H88.9347V11.8977H91.6108C92.0805 11.8977 92.4706 11.8333 92.7812 11.7045C93.0919 11.5758 93.3229 11.3826 93.4744 11.125C93.6297 10.8674 93.7074 10.5473 93.7074 10.1648C93.7074 9.77841 93.6297 9.45265 93.4744 9.1875C93.3229 8.92235 93.09 8.72159 92.7756 8.58523C92.465 8.44508 92.0729 8.375 91.5994 8.375H89.9403V18H87.4801ZM93.7642 12.7045L96.6562 18H93.9403L91.1108 12.7045H93.7642ZM105.808 18H101.683V6.36364H105.842C107.013 6.36364 108.02 6.59659 108.865 7.0625C109.71 7.52462 110.359 8.18939 110.814 9.05682C111.272 9.92424 111.501 10.9621 111.501 12.1705C111.501 13.3826 111.272 14.4242 110.814 15.2955C110.359 16.1667 109.706 16.8352 108.854 17.3011C108.005 17.767 106.99 18 105.808 18ZM104.143 15.892H105.706C106.433 15.892 107.045 15.7633 107.541 15.5057C108.041 15.2443 108.416 14.8409 108.666 14.2955C108.92 13.7462 109.047 13.0379 109.047 12.1705C109.047 11.3106 108.92 10.608 108.666 10.0625C108.416 9.51705 108.043 9.11553 107.547 8.85795C107.051 8.60038 106.439 8.47159 105.712 8.47159H104.143V15.892ZM124.017 12.1818C124.017 13.4508 123.777 14.5303 123.295 15.4205C122.818 16.3106 122.167 16.9905 121.341 17.4602C120.519 17.9261 119.595 18.1591 118.568 18.1591C117.534 18.1591 116.606 17.9242 115.784 17.4545C114.962 16.9848 114.313 16.3049 113.835 15.4148C113.358 14.5246 113.119 13.447 113.119 12.1818C113.119 10.9129 113.358 9.83333 113.835 8.94318C114.313 8.05303 114.962 7.375 115.784 6.90909C116.606 6.43939 117.534 6.20455 118.568 6.20455C119.595 6.20455 120.519 6.43939 121.341 6.90909C122.167 7.375 122.818 8.05303 123.295 8.94318C123.777 9.83333 124.017 10.9129 124.017 12.1818ZM121.523 12.1818C121.523 11.3598 121.4 10.6667 121.153 10.1023C120.911 9.53788 120.568 9.10985 120.125 8.81818C119.682 8.52652 119.163 8.38068 118.568 8.38068C117.973 8.38068 117.455 8.52652 117.011 8.81818C116.568 9.10985 116.223 9.53788 115.977 10.1023C115.735 10.6667 115.614 11.3598 115.614 12.1818C115.614 13.0038 115.735 13.697 115.977 14.2614C116.223 14.8258 116.568 15.2538 117.011 15.5455C117.455 15.8371 117.973 15.983 118.568 15.983C119.163 15.983 119.682 15.8371 120.125 15.5455C120.568 15.2538 120.911 14.8258 121.153 14.2614C121.4 13.697 121.523 13.0038 121.523 12.1818ZM136.107 10.4375H133.618C133.572 10.1155 133.48 9.82955 133.339 9.57955C133.199 9.32576 133.019 9.10985 132.8 8.93182C132.58 8.75379 132.326 8.61742 132.038 8.52273C131.754 8.42803 131.446 8.38068 131.112 8.38068C130.51 8.38068 129.985 8.5303 129.538 8.82955C129.091 9.125 128.745 9.55682 128.499 10.125C128.252 10.6894 128.129 11.375 128.129 12.1818C128.129 13.0114 128.252 13.7083 128.499 14.2727C128.749 14.8371 129.097 15.2633 129.544 15.5511C129.991 15.839 130.508 15.983 131.095 15.983C131.425 15.983 131.73 15.9394 132.01 15.8523C132.294 15.7652 132.546 15.6383 132.766 15.4716C132.985 15.3011 133.167 15.0947 133.311 14.8523C133.459 14.6098 133.561 14.3333 133.618 14.0227L136.107 14.0341C136.042 14.5682 135.881 15.0833 135.624 15.5795C135.37 16.072 135.027 16.5133 134.595 16.9034C134.167 17.2898 133.656 17.5966 133.061 17.8239C132.47 18.0473 131.802 18.1591 131.055 18.1591C130.018 18.1591 129.089 17.9242 128.271 17.4545C127.457 16.9848 126.813 16.3049 126.339 15.4148C125.87 14.5246 125.635 13.447 125.635 12.1818C125.635 10.9129 125.874 9.83333 126.351 8.94318C126.828 8.05303 127.476 7.375 128.294 6.90909C129.112 6.43939 130.033 6.20455 131.055 6.20455C131.73 6.20455 132.355 6.29924 132.93 6.48864C133.51 6.67803 134.023 6.95455 134.47 7.31818C134.917 7.67803 135.281 8.11932 135.561 8.64205C135.845 9.16477 136.027 9.76326 136.107 10.4375ZM145.058 6.36364H147.518V13.9205C147.518 14.7689 147.316 15.5114 146.911 16.1477C146.509 16.7841 145.946 17.2803 145.223 17.6364C144.5 17.9886 143.657 18.1648 142.695 18.1648C141.729 18.1648 140.884 17.9886 140.161 17.6364C139.437 17.2803 138.875 16.7841 138.473 16.1477C138.071 15.5114 137.871 14.7689 137.871 13.9205V6.36364H140.331V13.7102C140.331 14.1534 140.428 14.5473 140.621 14.892C140.818 15.2367 141.094 15.5076 141.45 15.7045C141.806 15.9015 142.221 16 142.695 16C143.172 16 143.587 15.9015 143.939 15.7045C144.295 15.5076 144.57 15.2367 144.763 14.892C144.96 14.5473 145.058 14.1534 145.058 13.7102V6.36364ZM149.543 6.36364H152.577L155.781 14.1818H155.918L159.122 6.36364H162.156V18H159.77V10.4261H159.673L156.662 17.9432H155.037L152.026 10.3977H151.929V18H149.543V6.36364ZM164.183 18V6.36364H172.024V8.39205H166.643V11.1648H171.621V13.1932H166.643V15.9716H172.047V18H164.183ZM183.713 6.36364V18H181.588L176.526 10.6761H176.44V18H173.98V6.36364H176.139L181.162 13.6818H181.264V6.36364H183.713ZM185.303 8.39205V6.36364H194.859V8.39205H191.297V18H188.865V8.39205H185.303ZM202.746 9.71023C202.7 9.25189 202.505 8.89583 202.161 8.64205C201.816 8.38826 201.348 8.26136 200.757 8.26136C200.356 8.26136 200.017 8.31818 199.74 8.43182C199.464 8.54167 199.251 8.69508 199.104 8.89205C198.96 9.08902 198.888 9.3125 198.888 9.5625C198.88 9.77083 198.924 9.95265 199.018 10.108C199.117 10.2633 199.251 10.3977 199.422 10.5114C199.592 10.6212 199.789 10.7178 200.013 10.8011C200.236 10.8807 200.475 10.9489 200.729 11.0057L201.774 11.2557C202.282 11.3693 202.748 11.5208 203.172 11.7102C203.596 11.8996 203.964 12.1326 204.274 12.4091C204.585 12.6856 204.825 13.0114 204.996 13.3864C205.17 13.7614 205.259 14.1913 205.263 14.6761C205.259 15.3883 205.077 16.0057 204.717 16.5284C204.361 17.0473 203.846 17.4508 203.172 17.7386C202.501 18.0227 201.693 18.1648 200.746 18.1648C199.806 18.1648 198.988 18.0208 198.291 17.733C197.598 17.4451 197.056 17.0189 196.666 16.4545C196.28 15.8864 196.077 15.1837 196.058 14.3466H198.439C198.465 14.7367 198.577 15.0625 198.774 15.3239C198.975 15.5814 199.242 15.7765 199.575 15.9091C199.912 16.0379 200.293 16.1023 200.717 16.1023C201.134 16.1023 201.496 16.0417 201.803 15.9205C202.113 15.7992 202.354 15.6307 202.524 15.4148C202.695 15.1989 202.78 14.9508 202.78 14.6705C202.78 14.4091 202.702 14.1894 202.547 14.0114C202.395 13.8333 202.172 13.6818 201.876 13.5568C201.585 13.4318 201.227 13.3182 200.803 13.2159L199.536 12.8977C198.554 12.6591 197.78 12.286 197.212 11.7784C196.643 11.2708 196.361 10.5871 196.365 9.72727C196.361 9.02273 196.549 8.4072 196.928 7.88068C197.31 7.35417 197.835 6.94318 198.501 6.64773C199.168 6.35227 199.926 6.20455 200.774 6.20455C201.638 6.20455 202.392 6.35227 203.036 6.64773C203.683 6.94318 204.187 7.35417 204.547 7.88068C204.907 8.4072 205.092 9.01705 205.104 9.71023H202.746ZM210.621 18V6.36364H213.081V11.1648H218.075V6.36364H220.53V18H218.075V13.1932H213.081V18H210.621ZM222.558 18V6.36364H230.399V8.39205H225.018V11.1648H229.996V13.1932H225.018V15.9716H230.422V18H222.558ZM232.355 18V6.36364H236.946C237.825 6.36364 238.575 6.52083 239.196 6.83523C239.821 7.14583 240.296 7.58712 240.622 8.15909C240.952 8.72727 241.116 9.39583 241.116 10.1648C241.116 10.9375 240.95 11.6023 240.616 12.1591C240.283 12.7121 239.8 13.1364 239.168 13.4318C238.539 13.7273 237.777 13.875 236.884 13.875H233.81V11.8977H236.486C236.955 11.8977 237.346 11.8333 237.656 11.7045C237.967 11.5758 238.198 11.3826 238.349 11.125C238.505 10.8674 238.582 10.5473 238.582 10.1648C238.582 9.77841 238.505 9.45265 238.349 9.1875C238.198 8.92235 237.965 8.72159 237.651 8.58523C237.34 8.44508 236.948 8.375 236.474 8.375H234.815V18H232.355ZM238.639 12.7045L241.531 18H238.815L235.986 12.7045H238.639ZM242.855 18V6.36364H250.696V8.39205H245.315V11.1648H250.293V13.1932H245.315V15.9716H250.719V18H242.855ZM255.499 6.36364L255.277 14.5114H253.197L252.97 6.36364H255.499ZM254.237 18.1477C253.862 18.1477 253.54 18.0152 253.271 17.75C253.002 17.4811 252.87 17.1591 252.874 16.7841C252.87 16.4129 253.002 16.0947 253.271 15.8295C253.54 15.5644 253.862 15.4318 254.237 15.4318C254.597 15.4318 254.913 15.5644 255.186 15.8295C255.459 16.0947 255.597 16.4129 255.601 16.7841C255.597 17.0341 255.531 17.2633 255.402 17.4716C255.277 17.6761 255.112 17.8409 254.908 17.9659C254.703 18.0871 254.48 18.1477 254.237 18.1477Z" fill="black"/>
<path d="M3.08239 70L0.298295 59.8182H1.55114L3.67898 68.1108H3.77841L5.94602 59.8182H7.33807L9.50568 68.1108H9.60511L11.733 59.8182H12.9858L10.2017 70H8.92898L6.68182 61.8864H6.60227L4.35511 70H3.08239ZM15.5362 65.4062V70H14.3629V59.8182H15.5362V63.5568H15.6357C15.8146 63.1624 16.0831 62.8492 16.4411 62.6172C16.8023 62.3819 17.2829 62.2642 17.8828 62.2642C18.4032 62.2642 18.8589 62.3686 19.25 62.5774C19.6411 62.7829 19.9444 63.0994 20.1598 63.527C20.3786 63.9512 20.4879 64.4915 20.4879 65.1477V70H19.3146V65.2273C19.3146 64.6207 19.1572 64.1518 18.8423 63.8203C18.5308 63.4856 18.0982 63.3182 17.5447 63.3182C17.1603 63.3182 16.8156 63.3994 16.5107 63.5618C16.209 63.7242 15.9704 63.9612 15.7947 64.2727C15.6224 64.5843 15.5362 64.9621 15.5362 65.4062ZM24.8816 70.179C24.3977 70.179 23.9585 70.0878 23.5641 69.9055C23.1697 69.7199 22.8565 69.4531 22.6245 69.1051C22.3925 68.7538 22.2765 68.3295 22.2765 67.8324C22.2765 67.3949 22.3626 67.0402 22.535 66.7685C22.7073 66.4934 22.9377 66.2779 23.226 66.1222C23.5144 65.9664 23.8326 65.8504 24.1806 65.7741C24.5319 65.6946 24.8849 65.6316 25.2395 65.5852C25.7035 65.5256 26.0797 65.4808 26.3681 65.451C26.6597 65.4179 26.8719 65.3632 27.0044 65.2869C27.1403 65.2107 27.2083 65.0781 27.2083 64.8892V64.8494C27.2083 64.3589 27.074 63.9777 26.8056 63.706C26.5404 63.4342 26.1377 63.2983 25.5975 63.2983C25.0373 63.2983 24.5982 63.4209 24.28 63.6662C23.9618 63.9115 23.7381 64.1733 23.6088 64.4517L22.4952 64.054C22.6941 63.59 22.9592 63.2287 23.2907 62.9702C23.6254 62.7083 23.99 62.526 24.3844 62.4233C24.7821 62.3172 25.1732 62.2642 25.5577 62.2642C25.803 62.2642 26.0847 62.294 26.4029 62.3537C26.7244 62.41 27.0343 62.5277 27.3326 62.7067C27.6342 62.8857 27.8844 63.1558 28.0833 63.517C28.2821 63.8783 28.3816 64.3622 28.3816 64.9688V70H27.2083V68.9659H27.1486C27.0691 69.1316 26.9365 69.3089 26.7509 69.4979C26.5653 69.6868 26.3184 69.8475 26.0101 69.9801C25.7019 70.1127 25.3257 70.179 24.8816 70.179ZM25.0605 69.125C25.5246 69.125 25.9157 69.0339 26.2338 68.8516C26.5553 68.6693 26.7973 68.4339 26.9597 68.1456C27.1254 67.8572 27.2083 67.554 27.2083 67.2358V66.1619C27.1586 66.2216 27.0492 66.2763 26.8801 66.326C26.7144 66.3724 26.5222 66.4138 26.3034 66.4503C26.088 66.4834 25.8775 66.5133 25.6721 66.5398C25.4699 66.563 25.3058 66.5829 25.1799 66.5994C24.8749 66.6392 24.5899 66.7038 24.3248 66.7933C24.0629 66.8795 23.8508 67.0104 23.6884 67.1861C23.5293 67.3584 23.4498 67.5937 23.4498 67.892C23.4498 68.2997 23.6006 68.608 23.9022 68.8168C24.2071 69.0223 24.5932 69.125 25.0605 69.125ZM33.8441 62.3636V63.358H29.8867V62.3636H33.8441ZM31.0401 60.5341H32.2134V67.8125C32.2134 68.1439 32.2615 68.3925 32.3576 68.5582C32.457 68.7206 32.583 68.83 32.7354 68.8864C32.8912 68.9394 33.0553 68.9659 33.2276 68.9659C33.3569 68.9659 33.463 68.9593 33.5458 68.946C33.6287 68.9295 33.695 68.9162 33.7447 68.9062L33.9833 69.9602C33.9038 69.9901 33.7927 70.0199 33.6502 70.0497C33.5077 70.0829 33.3271 70.0994 33.1083 70.0994C32.7769 70.0994 32.4521 70.0282 32.1339 69.8857C31.819 69.7431 31.5572 69.526 31.3484 69.2344C31.1429 68.9427 31.0401 68.5748 31.0401 68.1307V60.5341ZM40.8814 64.0739L39.8274 64.3722C39.7611 64.1965 39.6634 64.0258 39.5341 63.8601C39.4081 63.6911 39.2358 63.5518 39.017 63.4425C38.7983 63.3331 38.5182 63.2784 38.1768 63.2784C37.7095 63.2784 37.3201 63.3861 37.0085 63.6016C36.7003 63.8137 36.5462 64.0838 36.5462 64.4119C36.5462 64.7036 36.6522 64.9339 36.8643 65.103C37.0765 65.272 37.4079 65.4129 37.8587 65.5256L38.9922 65.804C39.675 65.9697 40.1837 66.2232 40.5185 66.5646C40.8532 66.9027 41.0206 67.3385 41.0206 67.8722C41.0206 68.3097 40.8946 68.7008 40.6428 69.0455C40.3942 69.3902 40.0462 69.6619 39.5987 69.8608C39.1513 70.0597 38.6309 70.1591 38.0376 70.1591C37.2588 70.1591 36.6141 69.9901 36.1037 69.652C35.5933 69.3139 35.2701 68.8201 35.1342 68.1705L36.2479 67.892C36.3539 68.303 36.5545 68.6113 36.8494 68.8168C37.1477 69.0223 37.5372 69.125 38.0178 69.125C38.5646 69.125 38.9988 69.009 39.3203 68.777C39.6451 68.5417 39.8075 68.2599 39.8075 67.9318C39.8075 67.6667 39.7147 67.4446 39.5291 67.2656C39.3435 67.0833 39.0585 66.9474 38.674 66.858L37.4013 66.5597C36.7019 66.3939 36.1882 66.1371 35.8601 65.7891C35.5353 65.4377 35.3729 64.9986 35.3729 64.4716C35.3729 64.0407 35.4938 63.6596 35.7358 63.3281C35.9811 62.9967 36.3142 62.7365 36.7351 62.5476C37.1593 62.3587 37.6399 62.2642 38.1768 62.2642C38.9325 62.2642 39.5258 62.4299 39.9567 62.7614C40.3909 63.0928 40.6991 63.5303 40.8814 64.0739ZM43.3635 70H42.0708L45.8095 59.8182H47.0822L50.8208 70H49.5282L46.4856 61.429H46.4061L43.3635 70ZM43.8407 66.0227H49.051V67.1165H43.8407V66.0227ZM52.2477 72.8636V62.3636H53.3812V63.5767H53.5204C53.6066 63.4441 53.7259 63.2751 53.8784 63.0696C54.0342 62.8608 54.2562 62.6752 54.5446 62.5128C54.8362 62.3471 55.2306 62.2642 55.7278 62.2642C56.3708 62.2642 56.9376 62.425 57.4281 62.7464C57.9186 63.0679 58.3014 63.5237 58.5765 64.1136C58.8516 64.7036 58.9892 65.3996 58.9892 66.2017C58.9892 67.0104 58.8516 67.7114 58.5765 68.3047C58.3014 68.8946 57.9203 69.352 57.4331 69.6768C56.9458 69.9983 56.3841 70.1591 55.7477 70.1591C55.2572 70.1591 54.8644 70.0779 54.5694 69.9155C54.2744 69.7498 54.0474 69.5625 53.8883 69.3537C53.7292 69.1416 53.6066 68.9659 53.5204 68.8267H53.421V72.8636H52.2477ZM53.4011 66.1818C53.4011 66.7585 53.4856 67.2673 53.6547 67.7081C53.8237 68.1456 54.0706 68.4886 54.3954 68.7372C54.7202 68.9825 55.118 69.1051 55.5886 69.1051C56.0791 69.1051 56.4885 68.9759 56.8166 68.7173C57.148 68.4555 57.3966 68.1042 57.5623 67.6634C57.7314 67.2192 57.8159 66.7254 57.8159 66.1818C57.8159 65.6449 57.733 65.161 57.5673 64.7301C57.4049 64.2959 57.158 63.9529 56.8265 63.701C56.4984 63.4458 56.0858 63.3182 55.5886 63.3182C55.1113 63.3182 54.7103 63.4392 54.3855 63.6811C54.0607 63.9197 53.8154 64.2545 53.6497 64.6854C53.484 65.1129 53.4011 65.6117 53.4011 66.1818ZM60.7789 72.8636V62.3636H61.9125V63.5767H62.0517C62.1378 63.4441 62.2572 63.2751 62.4096 63.0696C62.5654 62.8608 62.7875 62.6752 63.0758 62.5128C63.3675 62.3471 63.7619 62.2642 64.2591 62.2642C64.902 62.2642 65.4688 62.425 65.9593 62.7464C66.4499 63.0679 66.8327 63.5237 67.1078 64.1136C67.3829 64.7036 67.5204 65.3996 67.5204 66.2017C67.5204 67.0104 67.3829 67.7114 67.1078 68.3047C66.8327 68.8946 66.4515 69.352 65.9643 69.6768C65.4771 69.9983 64.9153 70.1591 64.2789 70.1591C63.7884 70.1591 63.3957 70.0779 63.1007 69.9155C62.8057 69.7498 62.5787 69.5625 62.4196 69.3537C62.2605 69.1416 62.1378 68.9659 62.0517 68.8267H61.9522V72.8636H60.7789ZM61.9324 66.1818C61.9324 66.7585 62.0169 67.2673 62.1859 67.7081C62.3549 68.1456 62.6019 68.4886 62.9267 68.7372C63.2515 68.9825 63.6492 69.1051 64.1199 69.1051C64.6104 69.1051 65.0197 68.9759 65.3478 68.7173C65.6793 68.4555 65.9279 68.1042 66.0936 67.6634C66.2626 67.2192 66.3471 66.7254 66.3471 66.1818C66.3471 65.6449 66.2643 65.161 66.0985 64.7301C65.9361 64.2959 65.6892 63.9529 65.3578 63.701C65.0297 63.4458 64.617 63.3182 64.1199 63.3182C63.6426 63.3182 63.2415 63.4392 62.9167 63.6811C62.5919 63.9197 62.3467 64.2545 62.1809 64.6854C62.0152 65.1129 61.9324 65.6117 61.9324 66.1818ZM80.1681 68.2102V61.6477H81.2818V68.2102H80.1681ZM77.4437 65.4858V64.3722H84.0062V65.4858H77.4437ZM89.6353 59.679C90.0529 59.6823 90.4705 59.7618 90.8881 59.9176C91.3058 60.0734 91.6869 60.3319 92.0316 60.6932C92.3763 61.0511 92.6531 61.54 92.8619 62.1598C93.0707 62.7796 93.1751 63.5568 93.1751 64.4915C93.1751 65.3963 93.0889 66.2 92.9165 66.9027C92.7475 67.602 92.5022 68.192 92.1808 68.6726C91.8626 69.1532 91.4748 69.5178 91.0174 69.7663C90.5633 70.0149 90.0496 70.1392 89.4762 70.1392C88.9061 70.1392 88.3974 70.0265 87.9499 69.8011C87.5058 69.5724 87.1412 69.2559 86.8562 68.8516C86.5745 68.4439 86.3938 67.9716 86.3143 67.4347H87.5273C87.6367 67.902 87.8538 68.2881 88.1786 68.593C88.5067 68.8946 88.9393 69.0455 89.4762 69.0455C90.2617 69.0455 90.8815 68.7024 91.3356 68.0163C91.793 67.3303 92.0217 66.3608 92.0217 65.108H91.9421C91.7565 65.3864 91.5361 65.6267 91.2809 65.8288C91.0257 66.031 90.7423 66.1868 90.4308 66.2962C90.1192 66.4055 89.7878 66.4602 89.4364 66.4602C88.8531 66.4602 88.3178 66.3161 87.8306 66.0277C87.3467 65.736 86.9589 65.3366 86.6673 64.8295C86.3789 64.3191 86.2347 63.7358 86.2347 63.0795C86.2347 62.4564 86.3739 61.8864 86.6523 61.3693C86.9341 60.849 87.3285 60.4347 87.8356 60.1264C88.346 59.8182 88.9459 59.669 89.6353 59.679ZM89.6353 60.7727C89.2177 60.7727 88.8415 60.8771 88.5067 61.0859C88.1753 61.2914 87.9118 61.5698 87.7163 61.9212C87.524 62.2692 87.4279 62.6553 87.4279 63.0795C87.4279 63.5038 87.5207 63.8899 87.7063 64.2379C87.8952 64.5826 88.1521 64.8577 88.4769 65.0632C88.805 65.2654 89.1779 65.3665 89.5955 65.3665C89.9104 65.3665 90.2037 65.3052 90.4755 65.1825C90.7473 65.0566 90.9843 64.8859 91.1864 64.6705C91.3919 64.4517 91.5527 64.2048 91.6687 63.9297C91.7847 63.6513 91.8427 63.3613 91.8427 63.0597C91.8427 62.6619 91.7466 62.2891 91.5543 61.9411C91.3654 61.593 91.1036 61.3113 90.7688 61.0959C90.4374 60.8804 90.0595 60.7727 89.6353 60.7727ZM95.1749 70L99.7289 60.9915V60.9119H94.4789V59.8182H101.002V60.9716L96.4675 70H95.1749ZM105.9 70.1392C105.317 70.1392 104.791 70.0232 104.324 69.7912C103.857 69.5592 103.482 69.241 103.2 68.8366C102.919 68.4323 102.764 67.9716 102.738 67.4545H103.931C103.978 67.9152 104.186 68.2964 104.558 68.598C104.932 68.8963 105.379 69.0455 105.9 69.0455C106.317 69.0455 106.689 68.9477 107.013 68.7521C107.342 68.5566 107.598 68.2881 107.784 67.9467C107.973 67.602 108.067 67.2126 108.067 66.7784C108.067 66.3343 107.97 65.9382 107.774 65.5902C107.582 65.2389 107.317 64.9621 106.979 64.7599C106.641 64.5578 106.254 64.455 105.82 64.4517C105.509 64.4484 105.189 64.4964 104.861 64.5959C104.533 64.692 104.263 64.8163 104.05 64.9688L102.897 64.8295L103.513 59.8182H108.803V60.9119H104.548L104.19 63.9148H104.249C104.458 63.7491 104.72 63.6115 105.035 63.5021C105.35 63.3928 105.678 63.3381 106.019 63.3381C106.642 63.3381 107.197 63.4872 107.685 63.7855C108.175 64.0805 108.56 64.4848 108.838 64.9986C109.12 65.5123 109.261 66.099 109.261 66.7585C109.261 67.4081 109.115 67.9882 108.823 68.4986C108.535 69.0057 108.137 69.4067 107.63 69.7017C107.123 69.9934 106.546 70.1392 105.9 70.1392ZM118.753 59.8182V70H117.52V61.1108H117.46L114.974 62.7614V61.5085L117.52 59.8182H118.753ZM121.999 70L126.553 60.9915V60.9119H121.303V59.8182H127.826V60.9716L123.292 70H121.999ZM133.259 59.8182V70H132.026V61.1108H131.966L129.48 62.7614V61.5085L132.026 59.8182H133.259ZM139.567 70.1392C139.15 70.1326 138.732 70.053 138.315 69.9006C137.897 69.7481 137.516 69.4912 137.171 69.13C136.826 68.7654 136.55 68.2732 136.341 67.6534C136.132 67.0303 136.028 66.2481 136.028 65.3068C136.028 64.4053 136.112 63.6065 136.281 62.9105C136.45 62.2112 136.696 61.6229 137.017 61.1456C137.339 60.665 137.726 60.3004 138.18 60.0518C138.638 59.8033 139.153 59.679 139.727 59.679C140.297 59.679 140.804 59.7933 141.248 60.022C141.695 60.2474 142.06 60.5623 142.342 60.9666C142.623 61.371 142.806 61.8366 142.888 62.3636H141.675C141.563 61.9062 141.344 61.5268 141.019 61.2251C140.694 60.9235 140.263 60.7727 139.727 60.7727C138.938 60.7727 138.316 61.1158 137.862 61.8018C137.411 62.4879 137.184 63.4508 137.181 64.6903H137.261C137.446 64.4086 137.667 64.1683 137.922 63.9695C138.18 63.7673 138.465 63.6115 138.777 63.5021C139.089 63.3928 139.418 63.3381 139.766 63.3381C140.35 63.3381 140.883 63.4839 141.367 63.7756C141.851 64.0639 142.239 64.4633 142.531 64.9737C142.822 65.4808 142.968 66.0625 142.968 66.7188C142.968 67.3485 142.827 67.9252 142.545 68.4489C142.264 68.9692 141.868 69.3835 141.357 69.6918C140.85 69.9967 140.254 70.1458 139.567 70.1392ZM139.567 69.0455C139.985 69.0455 140.36 68.9411 140.691 68.7322C141.026 68.5234 141.289 68.2434 141.482 67.892C141.677 67.5407 141.775 67.1496 141.775 66.7188C141.775 66.2978 141.68 65.915 141.491 65.5703C141.306 65.2223 141.049 64.9455 140.721 64.7401C140.396 64.5346 140.025 64.4318 139.607 64.4318C139.292 64.4318 138.999 64.4948 138.727 64.6207C138.455 64.7434 138.217 64.9124 138.011 65.1278C137.809 65.3433 137.65 65.5902 137.534 65.8686C137.418 66.1437 137.36 66.4337 137.36 66.7386C137.36 67.143 137.455 67.5208 137.643 67.8722C137.836 68.2235 138.098 68.5069 138.429 68.7223C138.764 68.9377 139.143 69.0455 139.567 69.0455ZM148.304 70.1392C147.886 70.1326 147.469 70.053 147.051 69.9006C146.633 69.7481 146.252 69.4912 145.907 69.13C145.563 68.7654 145.286 68.2732 145.077 67.6534C144.868 67.0303 144.764 66.2481 144.764 65.3068C144.764 64.4053 144.849 63.6065 145.018 62.9105C145.187 62.2112 145.432 61.6229 145.753 61.1456C146.075 60.665 146.463 60.3004 146.917 60.0518C147.374 59.8033 147.89 59.679 148.463 59.679C149.033 59.679 149.54 59.7933 149.984 60.022C150.432 60.2474 150.796 60.5623 151.078 60.9666C151.36 61.371 151.542 61.8366 151.625 62.3636H150.412C150.299 61.9062 150.08 61.5268 149.756 61.2251C149.431 60.9235 149 60.7727 148.463 60.7727C147.674 60.7727 147.053 61.1158 146.599 61.8018C146.148 62.4879 145.921 63.4508 145.917 64.6903H145.997C146.183 64.4086 146.403 64.1683 146.658 63.9695C146.917 63.7673 147.202 63.6115 147.513 63.5021C147.825 63.3928 148.155 63.3381 148.503 63.3381C149.086 63.3381 149.62 63.4839 150.104 63.7756C150.587 64.0639 150.975 64.4633 151.267 64.9737C151.559 65.4808 151.704 66.0625 151.704 66.7188C151.704 67.3485 151.564 67.9252 151.282 68.4489C151 68.9692 150.604 69.3835 150.094 69.6918C149.586 69.9967 148.99 70.1458 148.304 70.1392ZM148.304 69.0455C148.721 69.0455 149.096 68.9411 149.427 68.7322C149.762 68.5234 150.026 68.2434 150.218 67.892C150.413 67.5407 150.511 67.1496 150.511 66.7188C150.511 66.2978 150.417 65.915 150.228 65.5703C150.042 65.2223 149.785 64.9455 149.457 64.7401C149.132 64.5346 148.761 64.4318 148.344 64.4318C148.029 64.4318 147.735 64.4948 147.464 64.6207C147.192 64.7434 146.953 64.9124 146.748 65.1278C146.546 65.3433 146.386 65.5902 146.27 65.8686C146.154 66.1437 146.096 66.4337 146.096 66.7386C146.096 67.143 146.191 67.5208 146.38 67.8722C146.572 68.2235 146.834 68.5069 147.165 68.7223C147.5 68.9377 147.88 69.0455 148.304 69.0455ZM156.921 70.1392C156.238 70.1392 155.635 70.0182 155.111 69.7763C154.591 69.531 154.185 69.1946 153.893 68.767C153.601 68.3362 153.457 67.8456 153.461 67.2955C153.457 66.8646 153.542 66.4669 153.714 66.1023C153.886 65.7344 154.122 65.4278 154.42 65.1825C154.722 64.9339 155.058 64.7765 155.429 64.7102V64.6506C154.942 64.5246 154.554 64.2512 154.266 63.8303C153.978 63.406 153.835 62.9238 153.838 62.3835C153.835 61.8665 153.966 61.4041 154.231 60.9964C154.496 60.5888 154.861 60.2673 155.325 60.032C155.792 59.7966 156.324 59.679 156.921 59.679C157.511 59.679 158.038 59.7966 158.502 60.032C158.966 60.2673 159.33 60.5888 159.596 60.9964C159.864 61.4041 160 61.8665 160.003 62.3835C160 62.9238 159.852 63.406 159.561 63.8303C159.272 64.2512 158.89 64.5246 158.412 64.6506V64.7102C158.78 64.7765 159.112 64.9339 159.407 65.1825C159.702 65.4278 159.937 65.7344 160.113 66.1023C160.288 66.4669 160.378 66.8646 160.381 67.2955C160.378 67.8456 160.229 68.3362 159.934 68.767C159.642 69.1946 159.236 69.531 158.716 69.7763C158.199 70.0182 157.6 70.1392 156.921 70.1392ZM156.921 69.0455C157.382 69.0455 157.779 68.9709 158.114 68.8217C158.449 68.6726 158.707 68.4621 158.89 68.1903C159.072 67.9186 159.165 67.6004 159.168 67.2358C159.165 66.8513 159.065 66.5116 158.87 66.2166C158.674 65.9216 158.407 65.6896 158.069 65.5206C157.734 65.3516 157.352 65.267 156.921 65.267C156.487 65.267 156.099 65.3516 155.757 65.5206C155.419 65.6896 155.153 65.9216 154.957 66.2166C154.765 66.5116 154.67 66.8513 154.674 67.2358C154.67 67.6004 154.758 67.9186 154.937 68.1903C155.119 68.4621 155.38 68.6726 155.718 68.8217C156.056 68.9709 156.457 69.0455 156.921 69.0455ZM156.921 64.2131C157.285 64.2131 157.609 64.1402 157.89 63.9943C158.175 63.8485 158.399 63.6446 158.561 63.3828C158.724 63.121 158.807 62.8144 158.81 62.4631C158.807 62.1184 158.725 61.8184 158.566 61.5632C158.407 61.3047 158.187 61.1058 157.905 60.9666C157.623 60.8241 157.295 60.7528 156.921 60.7528C156.54 60.7528 156.207 60.8241 155.922 60.9666C155.636 61.1058 155.416 61.3047 155.26 61.5632C155.105 61.8184 155.028 62.1184 155.032 62.4631C155.028 62.8144 155.106 63.121 155.265 63.3828C155.428 63.6446 155.651 63.8485 155.936 63.9943C156.221 64.1402 156.55 64.2131 156.921 64.2131ZM165.548 70.1392C164.865 70.1392 164.262 70.0182 163.738 69.7763C163.218 69.531 162.812 69.1946 162.52 68.767C162.228 68.3362 162.084 67.8456 162.088 67.2955C162.084 66.8646 162.169 66.4669 162.341 66.1023C162.513 65.7344 162.749 65.4278 163.047 65.1825C163.349 64.9339 163.685 64.7765 164.056 64.7102V64.6506C163.569 64.5246 163.181 64.2512 162.893 63.8303C162.605 63.406 162.462 62.9238 162.465 62.3835C162.462 61.8665 162.593 61.4041 162.858 60.9964C163.123 60.5888 163.488 60.2673 163.952 60.032C164.419 59.7966 164.951 59.679 165.548 59.679C166.138 59.679 166.665 59.7966 167.129 60.032C167.593 60.2673 167.957 60.5888 168.222 60.9964C168.491 61.4041 168.627 61.8665 168.63 62.3835C168.627 62.9238 168.479 63.406 168.188 63.8303C167.899 64.2512 167.517 64.5246 167.039 64.6506V64.7102C167.407 64.7765 167.739 64.9339 168.034 65.1825C168.329 65.4278 168.564 65.7344 168.74 66.1023C168.915 66.4669 169.005 66.8646 169.008 67.2955C169.005 67.8456 168.856 68.3362 168.561 68.767C168.269 69.1946 167.863 69.531 167.343 69.7763C166.825 70.0182 166.227 70.1392 165.548 70.1392ZM165.548 69.0455C166.008 69.0455 166.406 68.9709 166.741 68.8217C167.076 68.6726 167.334 68.4621 167.517 68.1903C167.699 67.9186 167.792 67.6004 167.795 67.2358C167.792 66.8513 167.692 66.5116 167.497 66.2166C167.301 65.9216 167.034 65.6896 166.696 65.5206C166.361 65.3516 165.979 65.267 165.548 65.267C165.114 65.267 164.726 65.3516 164.384 65.5206C164.046 65.6896 163.78 65.9216 163.584 66.2166C163.392 66.5116 163.297 66.8513 163.301 67.2358C163.297 67.6004 163.385 67.9186 163.564 68.1903C163.746 68.4621 164.007 68.6726 164.345 68.8217C164.683 68.9709 165.084 69.0455 165.548 69.0455ZM165.548 64.2131C165.912 64.2131 166.235 64.1402 166.517 63.9943C166.802 63.8485 167.026 63.6446 167.188 63.3828C167.351 63.121 167.434 62.8144 167.437 62.4631C167.434 62.1184 167.352 61.8184 167.193 61.5632C167.034 61.3047 166.814 61.1058 166.532 60.9666C166.25 60.8241 165.922 60.7528 165.548 60.7528C165.167 60.7528 164.834 60.8241 164.548 60.9666C164.263 61.1058 164.043 61.3047 163.887 61.5632C163.731 61.8184 163.655 62.1184 163.659 62.4631C163.655 62.8144 163.733 63.121 163.892 63.3828C164.055 63.6446 164.278 63.8485 164.563 63.9943C164.848 64.1402 165.177 64.2131 165.548 64.2131ZM174.175 70.1392C173.492 70.1392 172.889 70.0182 172.365 69.7763C171.845 69.531 171.439 69.1946 171.147 68.767C170.855 68.3362 170.711 67.8456 170.714 67.2955C170.711 66.8646 170.796 66.4669 170.968 66.1023C171.14 65.7344 171.376 65.4278 171.674 65.1825C171.976 64.9339 172.312 64.7765 172.683 64.7102V64.6506C172.196 64.5246 171.808 64.2512 171.52 63.8303C171.232 63.406 171.089 62.9238 171.092 62.3835C171.089 61.8665 171.22 61.4041 171.485 60.9964C171.75 60.5888 172.115 60.2673 172.579 60.032C173.046 59.7966 173.578 59.679 174.175 59.679C174.765 59.679 175.292 59.7966 175.756 60.032C176.22 60.2673 176.584 60.5888 176.849 60.9964C177.118 61.4041 177.254 61.8665 177.257 62.3835C177.254 62.9238 177.106 63.406 176.815 63.8303C176.526 64.2512 176.143 64.5246 175.666 64.6506V64.7102C176.034 64.7765 176.366 64.9339 176.661 65.1825C176.955 65.4278 177.191 65.7344 177.366 66.1023C177.542 66.4669 177.632 66.8646 177.635 67.2955C177.632 67.8456 177.482 68.3362 177.188 68.767C176.896 69.1946 176.49 69.531 175.969 69.7763C175.452 70.0182 174.854 70.1392 174.175 70.1392ZM174.175 69.0455C174.635 69.0455 175.033 68.9709 175.368 68.8217C175.703 68.6726 175.961 68.4621 176.143 68.1903C176.326 67.9186 176.419 67.6004 176.422 67.2358C176.419 66.8513 176.319 66.5116 176.124 66.2166C175.928 65.9216 175.661 65.6896 175.323 65.5206C174.988 65.3516 174.606 65.267 174.175 65.267C173.741 65.267 173.353 65.3516 173.011 65.5206C172.673 65.6896 172.406 65.9216 172.211 66.2166C172.019 66.5116 171.924 66.8513 171.928 67.2358C171.924 67.6004 172.012 67.9186 172.191 68.1903C172.373 68.4621 172.634 68.6726 172.972 68.8217C173.31 68.9709 173.711 69.0455 174.175 69.0455ZM174.175 64.2131C174.539 64.2131 174.862 64.1402 175.144 63.9943C175.429 63.8485 175.653 63.6446 175.815 63.3828C175.978 63.121 176.061 62.8144 176.064 62.4631C176.061 62.1184 175.979 61.8184 175.82 61.5632C175.661 61.3047 175.441 61.1058 175.159 60.9666C174.877 60.8241 174.549 60.7528 174.175 60.7528C173.794 60.7528 173.46 60.8241 173.175 60.9666C172.89 61.1058 172.67 61.3047 172.514 61.5632C172.358 61.8184 172.282 62.1184 172.286 62.4631C172.282 62.8144 172.36 63.121 172.519 63.3828C172.682 63.6446 172.905 63.8485 173.19 63.9943C173.475 64.1402 173.804 64.2131 174.175 64.2131Z" fill="black"/>
<path d="M1.23295 104V93.8182H7.37784V94.9119H2.46591V98.3523H7.05966V99.446H2.46591V102.906H7.45739V104H1.23295ZM9.44105 104V96.3636H10.5746V97.5568H10.674C10.8331 97.1491 11.09 96.8326 11.4446 96.6072C11.7992 96.3786 12.2251 96.2642 12.7223 96.2642C13.2261 96.2642 13.6454 96.3786 13.9801 96.6072C14.3182 96.8326 14.5817 97.1491 14.7706 97.5568H14.8501C15.0457 97.1624 15.339 96.8492 15.7301 96.6172C16.1212 96.3819 16.5902 96.2642 17.1371 96.2642C17.8198 96.2642 18.3783 96.478 18.8125 96.9055C19.2467 97.3298 19.4638 97.991 19.4638 98.8892V104H18.2905V98.8892C18.2905 98.3258 18.1364 97.9231 17.8281 97.6811C17.5199 97.4392 17.157 97.3182 16.7393 97.3182C16.2024 97.3182 15.7865 97.4806 15.4915 97.8054C15.1965 98.1269 15.049 98.5346 15.049 99.0284V104H13.8558V98.7699C13.8558 98.3357 13.715 97.986 13.4332 97.7209C13.1515 97.4524 12.7886 97.3182 12.3445 97.3182C12.0395 97.3182 11.7545 97.3994 11.4893 97.5618C11.2275 97.7242 11.0154 97.9496 10.853 98.2379C10.6939 98.523 10.6143 98.8527 10.6143 99.2273V104H9.44105ZM23.8562 104.179C23.3723 104.179 22.9331 104.088 22.5387 103.906C22.1443 103.72 21.8311 103.453 21.5991 103.105C21.3671 102.754 21.2511 102.33 21.2511 101.832C21.2511 101.395 21.3372 101.04 21.5096 100.768C21.6819 100.493 21.9123 100.278 22.2006 100.122C22.489 99.9664 22.8072 99.8504 23.1552 99.7741C23.5065 99.6946 23.8595 99.6316 24.2141 99.5852C24.6781 99.5256 25.0543 99.4808 25.3427 99.451C25.6344 99.4179 25.8465 99.3632 25.979 99.2869C26.1149 99.2107 26.1829 99.0781 26.1829 98.8892V98.8494C26.1829 98.3589 26.0487 97.9777 25.7802 97.706C25.515 97.4342 25.1123 97.2983 24.5721 97.2983C24.012 97.2983 23.5728 97.4209 23.2546 97.6662C22.9364 97.9115 22.7127 98.1733 22.5835 98.4517L21.4698 98.054C21.6687 97.59 21.9338 97.2287 22.2653 96.9702C22.6 96.7083 22.9646 96.526 23.359 96.4233C23.7567 96.3172 24.1478 96.2642 24.5323 96.2642C24.7776 96.2642 25.0593 96.294 25.3775 96.3537C25.699 96.41 26.0089 96.5277 26.3072 96.7067C26.6088 96.8857 26.859 97.1558 27.0579 97.517C27.2567 97.8783 27.3562 98.3622 27.3562 98.9688V104H26.1829V102.966H26.1232C26.0437 103.132 25.9111 103.309 25.7255 103.498C25.5399 103.687 25.293 103.848 24.9847 103.98C24.6765 104.113 24.3003 104.179 23.8562 104.179ZM24.0352 103.125C24.4992 103.125 24.8903 103.034 25.2085 102.852C25.5299 102.669 25.7719 102.434 25.9343 102.146C26.1 101.857 26.1829 101.554 26.1829 101.236V100.162C26.1332 100.222 26.0238 100.276 25.8548 100.326C25.689 100.372 25.4968 100.414 25.2781 100.45C25.0626 100.483 24.8522 100.513 24.6467 100.54C24.4445 100.563 24.2804 100.583 24.1545 100.599C23.8496 100.639 23.5645 100.704 23.2994 100.793C23.0375 100.879 22.8254 101.01 22.663 101.186C22.5039 101.358 22.4244 101.594 22.4244 101.892C22.4244 102.3 22.5752 102.608 22.8768 102.817C23.1817 103.022 23.5678 103.125 24.0352 103.125ZM29.4977 104V96.3636H30.671V104H29.4977ZM30.0943 95.0909C29.8656 95.0909 29.6684 95.013 29.5027 94.8572C29.3403 94.7015 29.2591 94.5142 29.2591 94.2955C29.2591 94.0767 29.3403 93.8894 29.5027 93.7337C29.6684 93.5779 29.8656 93.5 30.0943 93.5C30.323 93.5 30.5185 93.5779 30.6809 93.7337C30.8467 93.8894 30.9295 94.0767 30.9295 94.2955C30.9295 94.5142 30.8467 94.7015 30.6809 94.8572C30.5185 95.013 30.323 95.0909 30.0943 95.0909ZM33.9933 93.8182V104H32.82V93.8182H33.9933ZM36.9973 104.08C36.7521 104.08 36.5416 103.992 36.3659 103.816C36.1903 103.64 36.1025 103.43 36.1025 103.185C36.1025 102.939 36.1903 102.729 36.3659 102.553C36.5416 102.378 36.7521 102.29 36.9973 102.29C37.2426 102.29 37.4531 102.378 37.6287 102.553C37.8044 102.729 37.8922 102.939 37.8922 103.185C37.8922 103.347 37.8508 103.496 37.7679 103.632C37.6884 103.768 37.5807 103.877 37.4448 103.96C37.3122 104.04 37.1631 104.08 36.9973 104.08ZM36.9973 98.4119C36.7521 98.4119 36.5416 98.3241 36.3659 98.1484C36.1903 97.9728 36.1025 97.7623 36.1025 97.517C36.1025 97.2718 36.1903 97.0613 36.3659 96.8857C36.5416 96.71 36.7521 96.6222 36.9973 96.6222C37.2426 96.6222 37.4531 96.71 37.6287 96.8857C37.8044 97.0613 37.8922 97.2718 37.8922 97.517C37.8922 97.6795 37.8508 97.8286 37.7679 97.9645C37.6884 98.1004 37.5807 98.2098 37.4448 98.2926C37.3122 98.3722 37.1631 98.4119 36.9973 98.4119ZM45.6653 104L43.3386 96.3636H44.5716L46.2221 102.21H46.3017L47.9324 96.3636H49.1852L50.796 102.19H50.8755L52.5261 96.3636H53.7591L51.4324 104H50.2789L48.6085 98.1335H48.4892L46.8187 104H45.6653ZM55.3102 104V96.3636H56.4835V104H55.3102ZM55.9068 95.0909C55.6781 95.0909 55.4809 95.013 55.3152 94.8572C55.1528 94.7015 55.0716 94.5142 55.0716 94.2955C55.0716 94.0767 55.1528 93.8894 55.3152 93.7337C55.4809 93.5779 55.6781 93.5 55.9068 93.5C56.1355 93.5 56.331 93.5779 56.4934 93.7337C56.6592 93.8894 56.742 94.0767 56.742 94.2955C56.742 94.5142 56.6592 94.7015 56.4934 94.8572C56.331 95.013 56.1355 95.0909 55.9068 95.0909ZM59.8058 93.8182V104H58.6325V93.8182H59.8058ZM63.128 93.8182V104H61.9547V93.8182H63.128ZM65.277 104V96.3636H66.4503V104H65.277ZM65.8736 95.0909C65.6449 95.0909 65.4477 95.013 65.282 94.8572C65.1196 94.7015 65.0384 94.5142 65.0384 94.2955C65.0384 94.0767 65.1196 93.8894 65.282 93.7337C65.4477 93.5779 65.6449 93.5 65.8736 93.5C66.1023 93.5 66.2978 93.5779 66.4602 93.7337C66.6259 93.8894 66.7088 94.0767 66.7088 94.2955C66.7088 94.5142 66.6259 94.7015 66.4602 94.8572C66.2978 95.013 66.1023 95.0909 65.8736 95.0909ZM69.7725 99.4062V104H68.5993V96.3636H69.7328V97.5568H69.8322C70.0112 97.169 70.283 96.8575 70.6475 96.6222C71.0121 96.3835 71.4828 96.2642 72.0595 96.2642C72.5765 96.2642 73.0289 96.3703 73.4167 96.5824C73.8045 96.7912 74.1061 97.1094 74.3216 97.5369C74.537 97.9612 74.6447 98.4981 74.6447 99.1477V104H73.4714V99.2273C73.4714 98.6274 73.3156 98.16 73.0041 97.8253C72.6925 97.4872 72.265 97.3182 71.7214 97.3182C71.3469 97.3182 71.0121 97.3994 70.7172 97.5618C70.4255 97.7242 70.1951 97.9612 70.0261 98.2727C69.8571 98.5843 69.7725 98.9621 69.7725 99.4062ZM79.8711 107.023C79.3043 107.023 78.8171 106.95 78.4094 106.804C78.0018 106.661 77.6621 106.473 77.3903 106.237C77.1218 106.005 76.908 105.757 76.7489 105.491L77.6836 104.835C77.7897 104.974 77.9239 105.134 78.0863 105.312C78.2487 105.495 78.4708 105.652 78.7525 105.785C79.0375 105.921 79.4104 105.989 79.8711 105.989C80.4876 105.989 80.9963 105.839 81.3974 105.541C81.7984 105.243 81.9989 104.776 81.9989 104.139V102.588H81.8995C81.8133 102.727 81.6907 102.9 81.5316 103.105C81.3758 103.307 81.1504 103.488 80.8555 103.647C80.5638 103.803 80.1694 103.881 79.6722 103.881C79.0558 103.881 78.5022 103.735 78.0117 103.443C77.5245 103.152 77.1384 102.727 76.8533 102.17C76.5716 101.614 76.4308 100.937 76.4308 100.142C76.4308 99.3598 76.5683 98.6787 76.8434 98.0987C77.1185 97.5154 77.5013 97.0646 77.9918 96.7464C78.4824 96.425 79.0491 96.2642 79.6921 96.2642C80.1893 96.2642 80.5837 96.3471 80.8754 96.5128C81.1703 96.6752 81.3957 96.8608 81.5515 97.0696C81.7106 97.2751 81.8332 97.4441 81.9194 97.5767H82.0387V96.3636H83.1722V104.219C83.1722 104.875 83.0231 105.409 82.7248 105.82C82.4298 106.234 82.0321 106.537 81.5316 106.729C81.0344 106.925 80.4809 107.023 79.8711 107.023ZM79.8313 102.827C80.302 102.827 80.6997 102.719 81.0245 102.504C81.3493 102.288 81.5962 101.978 81.7653 101.574C81.9343 101.17 82.0188 100.686 82.0188 100.122C82.0188 99.572 81.936 99.0864 81.7702 98.6655C81.6045 98.2446 81.3593 97.9148 81.0344 97.6761C80.7096 97.4375 80.3086 97.3182 79.8313 97.3182C79.3342 97.3182 78.9199 97.4441 78.5884 97.696C78.2603 97.9479 78.0134 98.286 77.8477 98.7102C77.6853 99.1345 77.604 99.6051 77.604 100.122C77.604 100.652 77.6869 101.121 77.8526 101.529C78.0217 101.933 78.2702 102.252 78.5984 102.484C78.9298 102.712 79.3408 102.827 79.8313 102.827ZM85.479 104V93.8182H86.6523V97.5767H86.7518C86.8379 97.4441 86.9573 97.2751 87.1097 97.0696C87.2655 96.8608 87.4876 96.6752 87.7759 96.5128C88.0676 96.3471 88.462 96.2642 88.9592 96.2642C89.6022 96.2642 90.1689 96.425 90.6594 96.7464C91.15 97.0679 91.5328 97.5237 91.8079 98.1136C92.083 98.7036 92.2205 99.3996 92.2205 100.202C92.2205 101.01 92.083 101.711 91.8079 102.305C91.5328 102.895 91.1516 103.352 90.6644 103.677C90.1772 103.998 89.6154 104.159 88.979 104.159C88.4885 104.159 88.0958 104.078 87.8008 103.915C87.5058 103.75 87.2788 103.562 87.1197 103.354C86.9606 103.142 86.8379 102.966 86.7518 102.827H86.6126V104H85.479ZM86.6325 100.182C86.6325 100.759 86.717 101.267 86.886 101.708C87.055 102.146 87.302 102.489 87.6268 102.737C87.9516 102.982 88.3493 103.105 88.82 103.105C89.3105 103.105 89.7198 102.976 90.0479 102.717C90.3794 102.455 90.628 102.104 90.7937 101.663C90.9627 101.219 91.0472 100.725 91.0472 100.182C91.0472 99.6449 90.9644 99.161 90.7987 98.7301C90.6362 98.2959 90.3893 97.9529 90.0579 97.701C89.7298 97.4458 89.3171 97.3182 88.82 97.3182C88.3427 97.3182 87.9416 97.4392 87.6168 97.6811C87.292 97.9197 87.0468 98.2545 86.881 98.6854C86.7153 99.1129 86.6325 99.6117 86.6325 100.182ZM95.1886 99.4062V104H94.0153V93.8182H95.1886V97.5568H95.288C95.467 97.1624 95.7354 96.8492 96.0934 96.6172C96.4547 96.3819 96.9353 96.2642 97.5352 96.2642C98.0555 96.2642 98.5112 96.3686 98.9023 96.5774C99.2934 96.7829 99.5967 97.0994 99.8121 97.527C100.031 97.9512 100.14 98.4915 100.14 99.1477V104H98.967V99.2273C98.967 98.6207 98.8095 98.1518 98.4947 97.8203C98.1831 97.4856 97.7506 97.3182 97.1971 97.3182C96.8126 97.3182 96.4679 97.3994 96.163 97.5618C95.8614 97.7242 95.6228 97.9612 95.4471 98.2727C95.2747 98.5843 95.1886 98.9621 95.1886 99.4062ZM107.099 100.878V96.3636H108.273V104H107.099V102.707H107.02C106.841 103.095 106.562 103.425 106.184 103.697C105.807 103.965 105.329 104.099 104.753 104.099C104.275 104.099 103.851 103.995 103.48 103.786C103.109 103.574 102.817 103.256 102.605 102.832C102.393 102.404 102.287 101.866 102.287 101.216V96.3636H103.46V101.136C103.46 101.693 103.616 102.137 103.927 102.469C104.242 102.8 104.643 102.966 105.131 102.966C105.422 102.966 105.719 102.891 106.02 102.742C106.325 102.593 106.581 102.364 106.786 102.056C106.995 101.748 107.099 101.355 107.099 100.878ZM113.743 96.3636V97.358H109.785V96.3636H113.743ZM110.939 94.5341H112.112V101.812C112.112 102.144 112.16 102.393 112.256 102.558C112.355 102.721 112.481 102.83 112.634 102.886C112.79 102.939 112.954 102.966 113.126 102.966C113.255 102.966 113.361 102.959 113.444 102.946C113.527 102.929 113.593 102.916 113.643 102.906L113.882 103.96C113.802 103.99 113.691 104.02 113.549 104.05C113.406 104.083 113.225 104.099 113.007 104.099C112.675 104.099 112.35 104.028 112.032 103.886C111.717 103.743 111.456 103.526 111.247 103.234C111.041 102.943 110.939 102.575 110.939 102.131V94.5341ZM117.755 104.179C117.271 104.179 116.832 104.088 116.437 103.906C116.043 103.72 115.73 103.453 115.498 103.105C115.266 102.754 115.15 102.33 115.15 101.832C115.15 101.395 115.236 101.04 115.408 100.768C115.58 100.493 115.811 100.278 116.099 100.122C116.387 99.9664 116.706 99.8504 117.054 99.7741C117.405 99.6946 117.758 99.6316 118.113 99.5852C118.577 99.5256 118.953 99.4808 119.241 99.451C119.533 99.4179 119.745 99.3632 119.877 99.2869C120.013 99.2107 120.081 99.0781 120.081 98.8892V98.8494C120.081 98.3589 119.947 97.9777 119.679 97.706C119.413 97.4342 119.011 97.2983 118.471 97.2983C117.91 97.2983 117.471 97.4209 117.153 97.6662C116.835 97.9115 116.611 98.1733 116.482 98.4517L115.368 98.054C115.567 97.59 115.832 97.2287 116.164 96.9702C116.498 96.7083 116.863 96.526 117.257 96.4233C117.655 96.3172 118.046 96.2642 118.431 96.2642C118.676 96.2642 118.958 96.294 119.276 96.3537C119.597 96.41 119.907 96.5277 120.206 96.7067C120.507 96.8857 120.757 97.1558 120.956 97.517C121.155 97.8783 121.255 98.3622 121.255 98.9688V104H120.081V102.966H120.022C119.942 103.132 119.81 103.309 119.624 103.498C119.438 103.687 119.191 103.848 118.883 103.98C118.575 104.113 118.199 104.179 117.755 104.179ZM117.934 103.125C118.398 103.125 118.789 103.034 119.107 102.852C119.428 102.669 119.67 102.434 119.833 102.146C119.998 101.857 120.081 101.554 120.081 101.236V100.162C120.032 100.222 119.922 100.276 119.753 100.326C119.587 100.372 119.395 100.414 119.176 100.45C118.961 100.483 118.751 100.513 118.545 100.54C118.343 100.563 118.179 100.583 118.053 100.599C117.748 100.639 117.463 100.704 117.198 100.793C116.936 100.879 116.724 101.01 116.561 101.186C116.402 101.358 116.323 101.594 116.323 101.892C116.323 102.3 116.474 102.608 116.775 102.817C117.08 103.022 117.466 103.125 117.934 103.125ZM124.569 99.4062V104H123.396V96.3636H124.53V97.5568H124.629C124.808 97.169 125.08 96.8575 125.444 96.6222C125.809 96.3835 126.28 96.2642 126.856 96.2642C127.373 96.2642 127.826 96.3703 128.214 96.5824C128.601 96.7912 128.903 97.1094 129.118 97.5369C129.334 97.9612 129.442 98.4981 129.442 99.1477V104H128.268V99.2273C128.268 98.6274 128.113 98.16 127.801 97.8253C127.489 97.4872 127.062 97.3182 126.518 97.3182C126.144 97.3182 125.809 97.3994 125.514 97.5618C125.222 97.7242 124.992 97.9612 124.823 98.2727C124.654 98.5843 124.569 98.9621 124.569 99.4062ZM137.452 106.685C136.438 106.685 135.541 106.545 134.762 106.267C133.984 105.992 133.329 105.586 132.799 105.049C132.268 104.512 131.867 103.854 131.596 103.075C131.324 102.296 131.188 101.405 131.188 100.401C131.188 99.4295 131.325 98.5611 131.6 97.7955C131.879 97.0298 132.282 96.3802 132.809 95.8466C133.339 95.3097 133.982 94.9003 134.738 94.6186C135.497 94.3369 136.355 94.196 137.313 94.196C138.244 94.196 139.06 94.3485 139.759 94.6534C140.462 94.955 141.048 95.3643 141.519 95.8814C141.993 96.3951 142.347 96.9735 142.583 97.6165C142.821 98.2595 142.941 98.9223 142.941 99.6051C142.941 100.086 142.917 100.573 142.871 101.067C142.825 101.561 142.727 102.015 142.578 102.429C142.429 102.84 142.198 103.171 141.887 103.423C141.578 103.675 141.161 103.801 140.634 103.801C140.402 103.801 140.147 103.765 139.868 103.692C139.59 103.619 139.343 103.498 139.127 103.329C138.912 103.16 138.784 102.933 138.745 102.648H138.685C138.605 102.84 138.483 103.022 138.317 103.195C138.155 103.367 137.941 103.504 137.676 103.607C137.414 103.71 137.094 103.755 136.716 103.741C136.285 103.725 135.906 103.629 135.578 103.453C135.25 103.274 134.975 103.032 134.752 102.727C134.534 102.419 134.368 102.063 134.255 101.658C134.146 101.251 134.091 100.812 134.091 100.341C134.091 99.8935 134.158 99.4841 134.29 99.1129C134.423 98.7417 134.607 98.4169 134.842 98.1385C135.081 97.8601 135.359 97.638 135.677 97.4723C135.999 97.3033 136.345 97.1989 136.716 97.1591C137.048 97.1259 137.349 97.1409 137.621 97.2038C137.893 97.2635 138.117 97.3546 138.292 97.4773C138.468 97.5966 138.579 97.7292 138.625 97.875H138.685V97.3182H139.739V101.812C139.739 102.091 139.817 102.336 139.973 102.548C140.128 102.76 140.355 102.866 140.654 102.866C140.992 102.866 141.25 102.75 141.429 102.518C141.612 102.286 141.736 101.929 141.802 101.445C141.872 100.961 141.907 100.341 141.907 99.5852C141.907 99.1411 141.845 98.7036 141.723 98.2727C141.603 97.8385 141.421 97.4325 141.176 97.0547C140.934 96.6768 140.627 96.3437 140.256 96.0554C139.885 95.767 139.449 95.5417 138.949 95.3793C138.451 95.2135 137.886 95.1307 137.253 95.1307C136.474 95.1307 135.777 95.2517 135.16 95.4936C134.547 95.7322 134.025 96.0819 133.594 96.5426C133.167 97 132.84 97.5568 132.615 98.2131C132.393 98.866 132.282 99.6084 132.282 100.44C132.282 101.286 132.393 102.036 132.615 102.692C132.84 103.349 133.172 103.902 133.609 104.353C134.05 104.804 134.595 105.145 135.245 105.377C135.894 105.612 136.643 105.73 137.492 105.73C137.856 105.73 138.216 105.695 138.571 105.626C138.925 105.556 139.239 105.48 139.51 105.397C139.782 105.314 139.978 105.253 140.097 105.213L140.375 106.128C140.17 106.214 139.901 106.3 139.57 106.386C139.242 106.473 138.891 106.544 138.516 106.6C138.145 106.656 137.79 106.685 137.452 106.685ZM136.875 102.727C137.319 102.727 137.679 102.638 137.954 102.459C138.229 102.28 138.43 102.01 138.556 101.648C138.682 101.287 138.745 100.831 138.745 100.281C138.745 99.7244 138.675 99.2902 138.536 98.9787C138.397 98.6671 138.191 98.4484 137.919 98.3224C137.648 98.1965 137.313 98.1335 136.915 98.1335C136.537 98.1335 136.214 98.233 135.946 98.4318C135.681 98.6274 135.477 98.8892 135.334 99.2173C135.195 99.5421 135.125 99.8968 135.125 100.281C135.125 100.705 135.182 101.105 135.294 101.479C135.407 101.851 135.591 102.152 135.846 102.384C136.101 102.613 136.444 102.727 136.875 102.727ZM147.779 107.023C147.213 107.023 146.725 106.95 146.318 106.804C145.91 106.661 145.57 106.473 145.298 106.237C145.03 106.005 144.816 105.757 144.657 105.491L145.592 104.835C145.698 104.974 145.832 105.134 145.994 105.312C146.157 105.495 146.379 105.652 146.661 105.785C146.946 105.921 147.319 105.989 147.779 105.989C148.396 105.989 148.905 105.839 149.306 105.541C149.707 105.243 149.907 104.776 149.907 104.139V102.588H149.808C149.722 102.727 149.599 102.9 149.44 103.105C149.284 103.307 149.059 103.488 148.764 103.647C148.472 103.803 148.078 103.881 147.58 103.881C146.964 103.881 146.41 103.735 145.92 103.443C145.433 103.152 145.047 102.727 144.762 102.17C144.48 101.614 144.339 100.937 144.339 100.142C144.339 99.3598 144.477 98.6787 144.752 98.0987C145.027 97.5154 145.41 97.0646 145.9 96.7464C146.391 96.425 146.957 96.2642 147.6 96.2642C148.097 96.2642 148.492 96.3471 148.784 96.5128C149.079 96.6752 149.304 96.8608 149.46 97.0696C149.619 97.2751 149.741 97.4441 149.828 97.5767H149.947V96.3636H151.08V104.219C151.08 104.875 150.931 105.409 150.633 105.82C150.338 106.234 149.94 106.537 149.44 106.729C148.943 106.925 148.389 107.023 147.779 107.023ZM147.74 102.827C148.21 102.827 148.608 102.719 148.933 102.504C149.258 102.288 149.504 101.978 149.673 101.574C149.843 101.17 149.927 100.686 149.927 100.122C149.927 99.572 149.844 99.0864 149.678 98.6655C149.513 98.2446 149.267 97.9148 148.943 97.6761C148.618 97.4375 148.217 97.3182 147.74 97.3182C147.242 97.3182 146.828 97.4441 146.497 97.696C146.169 97.9479 145.922 98.286 145.756 98.7102C145.593 99.1345 145.512 99.6051 145.512 100.122C145.512 100.652 145.595 101.121 145.761 101.529C145.93 101.933 146.178 102.252 146.507 102.484C146.838 102.712 147.249 102.827 147.74 102.827ZM153.228 104V96.3636H154.362V97.5568H154.461C154.62 97.1491 154.877 96.8326 155.232 96.6072C155.586 96.3786 156.012 96.2642 156.509 96.2642C157.013 96.2642 157.432 96.3786 157.767 96.6072C158.105 96.8326 158.369 97.1491 158.558 97.5568H158.637C158.833 97.1624 159.126 96.8492 159.517 96.6172C159.908 96.3819 160.377 96.2642 160.924 96.2642C161.607 96.2642 162.165 96.478 162.6 96.9055C163.034 97.3298 163.251 97.991 163.251 98.8892V104H162.078V98.8892C162.078 98.3258 161.923 97.9231 161.615 97.6811C161.307 97.4392 160.944 97.3182 160.526 97.3182C159.99 97.3182 159.574 97.4806 159.279 97.8054C158.984 98.1269 158.836 98.5346 158.836 99.0284V104H157.643V98.7699C157.643 98.3357 157.502 97.986 157.22 97.7209C156.939 97.4524 156.576 97.3182 156.132 97.3182C155.827 97.3182 155.542 97.3994 155.276 97.5618C155.015 97.7242 154.802 97.9496 154.64 98.2379C154.481 98.523 154.401 98.8527 154.401 99.2273V104H153.228ZM167.643 104.179C167.159 104.179 166.72 104.088 166.326 103.906C165.931 103.72 165.618 103.453 165.386 103.105C165.154 102.754 165.038 102.33 165.038 101.832C165.038 101.395 165.124 101.04 165.297 100.768C165.469 100.493 165.699 100.278 165.988 100.122C166.276 99.9664 166.594 99.8504 166.942 99.7741C167.294 99.6946 167.647 99.6316 168.001 99.5852C168.465 99.5256 168.841 99.4808 169.13 99.451C169.421 99.4179 169.634 99.3632 169.766 99.2869C169.902 99.2107 169.97 99.0781 169.97 98.8892V98.8494C169.97 98.3589 169.836 97.9777 169.567 97.706C169.302 97.4342 168.899 97.2983 168.359 97.2983C167.799 97.2983 167.36 97.4209 167.042 97.6662C166.724 97.9115 166.5 98.1733 166.371 98.4517L165.257 98.054C165.456 97.59 165.721 97.2287 166.052 96.9702C166.387 96.7083 166.752 96.526 167.146 96.4233C167.544 96.3172 167.935 96.2642 168.319 96.2642C168.565 96.2642 168.846 96.294 169.165 96.3537C169.486 96.41 169.796 96.5277 170.094 96.7067C170.396 96.8857 170.646 97.1558 170.845 97.517C171.044 97.8783 171.143 98.3622 171.143 98.9688V104H169.97V102.966H169.91C169.831 103.132 169.698 103.309 169.513 103.498C169.327 103.687 169.08 103.848 168.772 103.98C168.464 104.113 168.087 104.179 167.643 104.179ZM167.822 103.125C168.286 103.125 168.677 103.034 168.996 102.852C169.317 102.669 169.559 102.434 169.721 102.146C169.887 101.857 169.97 101.554 169.97 101.236V100.162C169.92 100.222 169.811 100.276 169.642 100.326C169.476 100.372 169.284 100.414 169.065 100.45C168.85 100.483 168.639 100.513 168.434 100.54C168.232 100.563 168.068 100.583 167.942 100.599C167.637 100.639 167.352 100.704 167.086 100.793C166.825 100.879 166.613 101.01 166.45 101.186C166.291 101.358 166.211 101.594 166.211 101.892C166.211 102.3 166.362 102.608 166.664 102.817C166.969 103.022 167.355 103.125 167.822 103.125ZM173.285 104V96.3636H174.458V104H173.285ZM173.881 95.0909C173.653 95.0909 173.455 95.013 173.29 94.8572C173.127 94.7015 173.046 94.5142 173.046 94.2955C173.046 94.0767 173.127 93.8894 173.29 93.7337C173.455 93.5779 173.653 93.5 173.881 93.5C174.11 93.5 174.306 93.5779 174.468 93.7337C174.634 93.8894 174.717 94.0767 174.717 94.2955C174.717 94.5142 174.634 94.7015 174.468 94.8572C174.306 95.013 174.11 95.0909 173.881 95.0909ZM177.78 93.8182V104H176.607V93.8182H177.78ZM180.784 104.08C180.539 104.08 180.329 103.992 180.153 103.816C179.977 103.64 179.89 103.43 179.89 103.185C179.89 102.939 179.977 102.729 180.153 102.553C180.329 102.378 180.539 102.29 180.784 102.29C181.03 102.29 181.24 102.378 181.416 102.553C181.592 102.729 181.679 102.939 181.679 103.185C181.679 103.347 181.638 103.496 181.555 103.632C181.475 103.768 181.368 103.877 181.232 103.96C181.099 104.04 180.95 104.08 180.784 104.08ZM186.887 104.159C186.171 104.159 185.555 103.99 185.038 103.652C184.521 103.314 184.123 102.848 183.844 102.255C183.566 101.662 183.427 100.984 183.427 100.222C183.427 99.446 183.569 98.7616 183.854 98.1683C184.143 97.5717 184.544 97.1061 185.058 96.7713C185.575 96.4332 186.178 96.2642 186.867 96.2642C187.404 96.2642 187.888 96.3636 188.319 96.5625C188.75 96.7614 189.103 97.0398 189.378 97.3977C189.653 97.7557 189.824 98.1733 189.89 98.6506H188.717C188.627 98.3026 188.428 97.9943 188.12 97.7259C187.815 97.4541 187.404 97.3182 186.887 97.3182C186.43 97.3182 186.029 97.4375 185.684 97.6761C185.343 97.9115 185.076 98.2446 184.884 98.6754C184.695 99.103 184.6 99.6051 184.6 100.182C184.6 100.772 184.693 101.286 184.879 101.723C185.067 102.161 185.333 102.5 185.674 102.742C186.019 102.984 186.423 103.105 186.887 103.105C187.192 103.105 187.469 103.052 187.717 102.946C187.966 102.84 188.176 102.688 188.349 102.489C188.521 102.29 188.644 102.051 188.717 101.773H189.89C189.824 102.223 189.66 102.629 189.398 102.991C189.139 103.349 188.796 103.634 188.369 103.846C187.944 104.055 187.451 104.159 186.887 104.159ZM194.707 104.159C194.018 104.159 193.413 103.995 192.893 103.667C192.376 103.339 191.971 102.88 191.68 102.29C191.391 101.7 191.247 101.01 191.247 100.222C191.247 99.4261 191.391 98.7318 191.68 98.1385C191.971 97.5452 192.376 97.0845 192.893 96.7564C193.413 96.4283 194.018 96.2642 194.707 96.2642C195.397 96.2642 196 96.4283 196.517 96.7564C197.037 97.0845 197.442 97.5452 197.73 98.1385C198.022 98.7318 198.168 99.4261 198.168 100.222C198.168 101.01 198.022 101.7 197.73 102.29C197.442 102.88 197.037 103.339 196.517 103.667C196 103.995 195.397 104.159 194.707 104.159ZM194.707 103.105C195.231 103.105 195.662 102.971 196 102.702C196.338 102.434 196.588 102.081 196.751 101.643C196.913 101.206 196.994 100.732 196.994 100.222C196.994 99.7112 196.913 99.2356 196.751 98.7947C196.588 98.3539 196.338 97.9976 196 97.7259C195.662 97.4541 195.231 97.3182 194.707 97.3182C194.184 97.3182 193.753 97.4541 193.415 97.7259C193.077 97.9976 192.826 98.3539 192.664 98.7947C192.502 99.2356 192.42 99.7112 192.42 100.222C192.42 100.732 192.502 101.206 192.664 101.643C192.826 102.081 193.077 102.434 193.415 102.702C193.753 102.971 194.184 103.105 194.707 103.105ZM199.959 104V96.3636H201.092V97.5568H201.192C201.351 97.1491 201.608 96.8326 201.962 96.6072C202.317 96.3786 202.743 96.2642 203.24 96.2642C203.744 96.2642 204.163 96.3786 204.498 96.6072C204.836 96.8326 205.099 97.1491 205.288 97.5568H205.368C205.563 97.1624 205.857 96.8492 206.248 96.6172C206.639 96.3819 207.108 96.2642 207.655 96.2642C208.337 96.2642 208.896 96.478 209.33 96.9055C209.764 97.3298 209.981 97.991 209.981 98.8892V104H208.808V98.8892C208.808 98.3258 208.654 97.9231 208.346 97.6811C208.037 97.4392 207.675 97.3182 207.257 97.3182C206.72 97.3182 206.304 97.4806 206.009 97.8054C205.714 98.1269 205.567 98.5346 205.567 99.0284V104H204.373V98.7699C204.373 98.3357 204.233 97.986 203.951 97.7209C203.669 97.4524 203.306 97.3182 202.862 97.3182C202.557 97.3182 202.272 97.3994 202.007 97.5618C201.745 97.7242 201.533 97.9496 201.371 98.2379C201.211 98.523 201.132 98.8527 201.132 99.2273V104H199.959Z" fill="black"/>
<path d="M255 65V65.5H255.5V65H255ZM198.646 64.6464C198.451 64.8417 198.451 65.1583 198.646 65.3536L201.828 68.5355C202.024 68.7308 202.34 68.7308 202.536 68.5355C202.731 68.3403 202.731 68.0237 202.536 67.8284L199.707 65L202.536 62.1716C202.731 61.9763 202.731 61.6597 202.536 61.4645C202.34 61.2692 202.024 61.2692 201.828 61.4645L198.646 64.6464ZM254.5 24V45.5H255.5V24H254.5ZM254.5 45.5V65H255.5V45.5H254.5ZM255 64.5H199V65.5H255V64.5Z" fill="#6B6B6B"/>
<path d="M255 100V100.5H255.5V100H255ZM220.646 99.6464C220.451 99.8417 220.451 100.158 220.646 100.354L223.828 103.536C224.024 103.731 224.34 103.731 224.536 103.536C224.731 103.34 224.731 103.024 224.536 102.828L221.707 100L224.536 97.1716C224.731 96.9763 224.731 96.6597 224.536 96.4645C224.34 96.2692 224.024 96.2692 223.828 96.4645L220.646 99.6464ZM254.5 24V63.8537H255.5V24H254.5ZM254.5 63.8537V100H255.5V63.8537H254.5ZM255 99.5H221V100.5H255V99.5Z" fill="#6B6B6B"/>
</svg>
